<?xml version="1.0" standalone="no"?>
<!DOCTYPE svg PUBLIC "-//W3C//DTD SVG 20010904//EN"
 "http://www.w3.org/TR/2001/REC-SVG-20010904/DTD/svg10.dtd">
<svg version="1.0" xmlns="http://www.w3.org/2000/svg"
 width="516.000000pt" height="516.000000pt" viewBox="0 0 516.000000 516.000000"
 preserveAspectRatio="xMidYMid meet">
<metadata>
Created by potrace 1.11, written by Peter Selinger 2001-2013
</metadata>
<g transform="translate(0.000000,516.000000) scale(0.100000,-0.100000)"
fill="#000000" stroke="none">
<path d="M1546 4199 c-181 -24 -361 -114 -467 -234 -63 -71 -91 -114 -83 -126
4 -7 3 -9 -3 -6 -7 4 -38 -35 -75 -91 -214 -325 -440 -803 -567 -1195 -225
-699 -208 -1189 52 -1423 53 -48 161 -109 177 -99 4 3 10 1 12 -4 7 -22 170
-44 282 -38 252 13 394 98 750 448 312 307 418 386 607 451 92 31 99 32 299
36 175 3 219 1 301 -16 198 -41 349 -134 578 -357 84 -82 158 -149 163 -147 5
1 7 -2 4 -7 -10 -15 227 -235 316 -294 157 -105 272 -140 443 -139 171 1 301
43 418 136 57 45 131 162 160 253 33 103 36 116 48 239 38 404 -143 1069 -466
1708 -96 191 -203 376 -217 376 -5 0 -7 4 -3 10 3 5 -3 18 -15 30 -11 11 -18
20 -14 20 10 0 -117 178 -168 234 -122 134 -283 213 -482 235 -117 13 -1948
13 -2050 0z m2059 -580 c78 -22 145 -115 145 -202 0 -48 -39 -123 -81 -157
-71 -57 -192 -54 -258 5 -21 19 -42 31 -47 27 -5 -4 -6 -3 -2 2 4 5 0 22 -8
39 -9 16 -16 55 -17 86 -1 145 126 239 268 200z m-1907 -15 c93 -39 131 -108
132 -240 l0 -91 98 -1 c110 0 136 -9 191 -65 93 -97 62 -260 -60 -321 -45 -22
-66 -26 -141 -26 l-88 0 0 -87 c0 -112 -27 -178 -90 -219 -55 -36 -149 -45
-201 -19 -33 17 -106 75 -94 75 3 0 -2 12 -11 26 -12 18 -19 55 -22 125 l-5
99 -86 0 c-73 0 -95 4 -138 25 -128 64 -152 242 -46 335 49 43 69 49 176 51
l94 1 5 97 c5 105 26 162 72 199 14 11 23 22 21 26 -3 3 -3 4 0 2 3 -2 22 3
43 10 50 18 105 17 150 -2z m1609 -369 c54 -38 83 -97 83 -164 0 -57 -17 -105
-48 -137 -12 -12 -18 -25 -14 -29 4 -4 3 -5 -3 -4 -5 2 -26 -5 -45 -16 -21
-11 -55 -18 -85 -19 -54 0 -115 7 -110 12 2 2 -13 18 -32 35 -113 99 -92 268
42 341 21 12 50 16 100 14 59 -3 76 -8 112 -33z m676 21 c18 -7 43 -25 56 -39
13 -15 28 -24 34 -20 6 3 7 1 4 -4 -4 -6 0 -24 8 -39 8 -17 15 -56 15 -90 0
-218 -301 -279 -391 -79 -46 100 -5 215 96 268 37 20 135 22 178 3z m-365
-352 c174 -72 173 -307 -1 -382 -42 -18 -122 -15 -165 7 -42 22 -106 89 -110
117 -19 127 28 223 128 263 38 15 106 13 148 -5z"/>
</g>
</svg>
